<?xml version="1.0" standalone="no"?>
<!DOCTYPE svg PUBLIC "-//W3C//DTD SVG 20010904//EN"
 "http://www.w3.org/TR/2001/REC-SVG-20010904/DTD/svg10.dtd">
<svg version="1.0" xmlns="http://www.w3.org/2000/svg"
 width="279.000000pt" height="174.000000pt" viewBox="0 0 279.000000 174.000000"
 preserveAspectRatio="xMidYMid meet">

<g transform="translate(0.000000,174.000000) scale(0.100000,-0.100000)"
fill="#ba2d0b" stroke="none">
<path d="M615 1503 c-89 -18 -234 -88 -307 -147 -258 -207 -334 -579 -181
-886 55 -111 189 -243 302 -300 113 -56 211 -80 330 -80 179 0 315 55 443 179
l79 76 -65 115 c-36 63 -69 121 -73 128 -6 8 -26 -11 -66 -63 -117 -153 -259
-205 -432 -159 -270 70 -412 376 -292 629 83 173 280 281 468 255 72 -10 130
-40 196 -103 74 -70 121 -143 266 -418 147 -280 204 -365 307 -462 125 -117
239 -165 416 -174 101 -5 120 -3 205 21 212 61 366 188 460 382 55 113 72 202
66 339 -6 122 -21 182 -75 294 -50 103 -195 251 -297 303 -272 140 -560 108
-770 -84 -92 -85 -92 -84 -46 -160 21 -35 53 -91 70 -126 l32 -63 43 58 c116
157 232 214 389 193 200 -28 354 -178 389 -378 48 -282 -195 -543 -483 -519
-120 10 -212 73 -307 210 -28 41 -99 166 -158 278 -176 338 -243 436 -366 534
-158 125 -347 170 -543 128z"/>
</g>
</svg>
